# xmcd
#
# Track frame offsets: 
#        150
#        22316
#        38149
#        53083
#        74093
#        87538
#        107406
#        124443
#        143559
#        162041
#        186040
#        202963
#        220674
#        259145
#        273904
#        290026
#        306423
#        327013
#
# Disc length: 4662 seconds
#
# Revision: 0
# Processed by: cddbd v1.5.2PL0 Copyright (c) Steve Scherf et al.
# Submitted via: ExactAudioCopy v1.0b1
#
DISCID=13123412
DTITLE=Peter LeMarc - Nio Broars Vag {2010 Starkare An Ord Box Edition
DTITLE=}
DYEAR=1997
DGENRE=Rock
TTITLE0=Ring I Dina Klockor
TTITLE1=Små Simpla Ting
TTITLE2=Jag Försöker Lära Mej Att Alska Dej
TTITLE3=Nio Broars Väg
TTITLE4=Du Och Jag Mot Världen
TTITLE5=Hon Gråter Inte Mer
TTITLE6=Brudbuketten
TTITLE7=En Mans Tomma Löften
TTITLE8=När Vi Gick I Solen
TTITLE9=Bara Dej
TTITLE10=Gabriel På Vita Hästen
TTITLE11=Merkuri
TTITLE12=I Väntan På Vågorna
TTITLE13=Låt Dom Vackra Leva (extranummer)
TTITLE14=Hud Mot Hud (extranummer)
TTITLE15=Om Vi Aldrig Skulle Ses Igen (extranummer)
TTITLE16=Trollkarln Från Stora Blå (extranummer)
TTITLE17=Nio Broars Väg (akustisk version, live i TV) (extranummer)
EXTD=
EXTT0=
EXTT1=
EXTT2=
EXTT3=
EXTT4=
EXTT5=
EXTT6=
EXTT7=
EXTT8=
EXTT9=
EXTT10=
EXTT11=
EXTT12=
EXTT13=
EXTT14=
EXTT15=
EXTT16=
EXTT17=
PLAYORDER=
